<svg id="Layer_3" data-name="Layer 3" xmlns="http://www.w3.org/2000/svg" viewBox="0 0 370.44 379.38"><defs><style>.cls-1{fill:inherit;}</style></defs><path class="cls-1" d="M213,373.1H62.69C16.4,373.1,0,343.68,0,319.94V242.51a22,22,0,0,1,22-22h0a22,22,0,0,1,22,22V307a22,22,0,0,0,22,22H207.69a22.45,22.45,0,0,0,3.84-.32c119.58-20.21,115-129.39,114.71-134.07l0-1.21c0-136.83-110.64-142.84-118.07-143.08h-142a22,22,0,0,0-22,22V91.25a22,22,0,0,0,22,22H199.44l1.34.16c52.41,6.48,64.9,55.15,64.21,80.33-.19,52.07-42.53,69.64-64.94,71.65l-2,.09H122.32a22,22,0,0,1-22-22h0a22,22,0,0,1,22-22h72.59a21.49,21.49,0,0,0,4.31-.41c8.22-1.72,21.7-7.63,21.7-27.6v-.73c.08-5-.64-30-22.24-34.93a19.39,19.39,0,0,0-4.31-.41H66.85c-55.28-1-66.85-32.77-66.85-57V70.05C0,20.19,34.8,6.28,55.57,6.28H209c1.61,0,161,6.07,161.3,186.56,2.71,54.08-26.28,160.42-155.67,180Z"/></svg>