<svg id="Layer_1" data-name="Layer 1" xmlns="http://www.w3.org/2000/svg" viewBox="0 0 300 100"><defs><style>.cls-1{fill:#0073ff;}.cls-2{fill:#fff;}</style></defs><path class="cls-1" d="M58.06,100h-41C4.47,100,0,92,0,85.51V64.4a6,6,0,0,1,6-6H6a6,6,0,0,1,6,6V82a6,6,0,0,0,6,6h38.6a6.2,6.2,0,0,0,1.05-.09C90.26,82.39,89,52.63,88.94,51.35V51c0-37.3-30.17-38.94-32.19-39H18a6,6,0,0,0-6,6v5.14a6,6,0,0,0,6,6H54.37l.37,0C69,31,72.43,44.25,72.24,51.12c0,14.19-11.59,19-17.7,19.53l-.54,0H33.34a6,6,0,0,1-6-6h0a6,6,0,0,1,6-6h19.8a5.81,5.81,0,0,0,1.17-.12c2.24-.47,5.91-2.08,5.91-7.52v-.2c0-1.36-.18-8.17-6.06-9.52A5.24,5.24,0,0,0,53,41.19H18.22C3.15,40.92,0,32.25,0,25.64V17.38C0,3.79,9.49,0,15.15,0H57c.44,0,43.89,1.66,44,50.86.74,14.74-7.16,43.73-42.43,49.07Z"/><path class="cls-2" d="M118.85,46.4V11h12.7c10.1,0,17.5,6.55,17.5,17.75S141.6,46.4,131.5,46.4Zm12.4-6.4c5.8,0,10.65-3.6,10.65-11.3s-4.8-11.35-10.6-11.35h-5.55V40Z"/><path class="cls-2" d="M174.45,38.3h-14.4l-3,8.1h-7.3L163.4,11h8L184.9,46.4h-7.5ZM162.35,32h9.8l-4.9-13.4Z"/><path class="cls-2" d="M203.85,10.2c9.65,0,18.25,7.05,18.25,18.5A18.27,18.27,0,0,1,217.75,41l4.25,4.7-4.55,3.91-4.35-4.81a18.88,18.88,0,0,1-9.25,2.4c-9.6,0-18.2-7-18.2-18.45S194.25,10.2,203.85,10.2Zm0,30.25a11.72,11.72,0,0,0,4.55-.9l-5.55-6.1,4.6-4L213,35.7A12.51,12.51,0,0,0,215,28.65c0-8-5.6-11.8-11.1-11.8s-11,3.8-11,11.8S198.4,40.45,203.85,40.45Z"/><path class="cls-2" d="M228.1,46.4V11h22.2v6.5H235v8.1h13.85V31.7H235v8.2h15.3v6.5Z"/><path class="cls-2" d="M290,46.4V21.55L279.75,46.4H274L263.8,21.75V46.4h-6.6V11h9.1L277,36.55,287.35,11h9.4V46.4Z"/><path class="cls-2" d="M137.7,64c-.35-2-1.95-5-6.45-5-3.35,0-5.55,2.16-5.55,4.51,0,2,1.25,3.5,3.85,4l4.95,1c6.45,1.25,9.9,5.45,9.9,10.45,0,5.45-4.55,11-12.8,11-9.4,0-13.55-6-14.1-11.1l6.4-1.7c.3,3.5,2.75,6.65,7.75,6.65,3.7,0,5.75-1.85,5.75-4.35,0-2-1.55-3.65-4.3-4.2l-4.95-1c-5.65-1.15-9.3-4.8-9.3-10.15,0-6.3,5.65-11.1,12.35-11.1,8.6,0,11.9,5.2,12.7,9.2Z"/><path class="cls-2" d="M158.2,64.45h5v5.9h-5v10.3c0,2.15,1,2.85,2.9,2.85a9.65,9.65,0,0,0,2.05-.2v5.5a9.86,9.86,0,0,1-3.75.6c-4.8,0-7.8-2.85-7.8-7.6V70.35h-4.45v-5.9h1.25c2.6,0,3.8-1.7,3.8-3.9V57.1h6Z"/><path class="cls-2" d="M184.85,86.4c-1.35,2.3-4.2,3.3-6.8,3.3-6,0-9.35-4.35-9.35-9.7V64.45h6.65v14.2c0,2.75,1.4,4.95,4.5,4.95s4.65-2,4.65-4.85V64.45h6.65V84.6a40.46,40.46,0,0,0,.25,4.45h-6.35A16.84,16.84,0,0,1,184.85,86.4Z"/><path class="cls-2" d="M221.6,84.6c0,1.65.1,3.45.2,4.45h-6.35a17,17,0,0,1-.25-2.85c-1.1,2-3.6,3.45-6.9,3.45-7,0-12-5.5-12-13,0-7.2,4.85-12.85,11.8-12.85,4.25,0,6.25,1.75,7,3.05V52.85h6.55Zm-12.5-.9c3.4,0,6.05-2.6,6.05-7s-2.65-6.85-6.05-6.85-6.1,2.5-6.1,6.9S205.6,83.7,209.1,83.7Z"/><path class="cls-2" d="M232.1,52.25A4.1,4.1,0,1,1,228,56.4,4.1,4.1,0,0,1,232.1,52.25Zm-3.3,36.8V64.45h6.65v24.6Z"/><path class="cls-2" d="M266.5,76.75a12.9,12.9,0,1,1-25.8,0,12.9,12.9,0,1,1,25.8,0Zm-6.65,0c0-4.65-3-7-6.25-7s-6.25,2.35-6.25,7,3,7,6.25,7S259.85,81.4,259.85,76.75Z"/><path class="cls-2" d="M275.35,81c.15,2,1.6,3.75,4.5,3.75,2.2,0,3.25-1.15,3.25-2.45,0-1.1-.75-2-2.65-2.4l-3.25-.75c-4.75-1-6.9-3.9-6.9-7.35,0-4.4,3.9-8,9.2-8,7,0,9.35,4.45,9.65,7.1l-5.55,1.25a3.75,3.75,0,0,0-4.05-3.3c-1.75,0-3.15,1-3.15,2.45,0,1.2.9,2,2.25,2.2l3.5.75c4.85,1,7.3,3.95,7.3,7.55,0,4-3.1,8.1-9.55,8.1-7.4,0-9.95-4.8-10.25-7.6Z"/></svg>