<svg id="Layer_1" data-name="Layer 1" xmlns="http://www.w3.org/2000/svg" viewBox="0 0 100 100"><defs><style>.cls-1{fill:#0073ff;}</style></defs><path class="cls-1" d="M91,22.67,53.19.85a6.43,6.43,0,0,0-6.38,0L9,22.67a6.37,6.37,0,0,0-3.18,5.52V71.81A6.37,6.37,0,0,0,9,77.33L46.81,99.15a6.43,6.43,0,0,0,6.38,0L91,77.33a6.37,6.37,0,0,0,3.18-5.52V28.19A6.37,6.37,0,0,0,91,22.67ZM83,65.36a6.37,6.37,0,0,1-3.18,5.52L53.19,86.24a6.43,6.43,0,0,1-6.38,0L20.21,70.88A6.37,6.37,0,0,1,17,65.36V34.64a6.37,6.37,0,0,1,3.18-5.52l26.6-15.36a6.43,6.43,0,0,1,6.38,0l26.6,15.36A6.37,6.37,0,0,1,83,34.64Z"/><path class="cls-1" d="M77.38,46.66V63.78a3.47,3.47,0,0,1-1.75,3l-22.44,13a6.38,6.38,0,0,1-6.38,0l-22.44-13a3.47,3.47,0,0,1-1.75-3V46.66a16.05,16.05,0,0,1,9.06-14.45c0,.29,0,.6,0,.89a18.34,18.34,0,0,0,36.68,0c0-.29,0-.6,0-.89A16.05,16.05,0,0,1,77.38,46.66Z"/><circle class="cls-1" cx="50" cy="33.1" r="12.75"/></svg>